# xmcd CD database file
#
# Track frame offsets:
#	150
#	11523
#	24633
#	39125
#	53499
#	67938
#	84397
#	100106
#	116034
#	128163
#	142211
#	157084
#	170341
#	182612
#	196352
#	211006
#	222716
#	235352
#	248296
#	260778
#
# Disc length: 3638 seconds
#
# Revision: 0
# Processed by: cddbd v1.5.2PL0 Copyright (c) Steve Scherf et al.
# Submitted via: CDex 1.70beta2
#
DISCID=130e3414
DTITLE=Various Artist - Scat
DYEAR=2006
DGENRE=Jazz
TTITLE0=Ella Fitzgerald - Flying Home
TTITLE1=Three Bips and A Bop - Oop Pop a Da
TTITLE2=Duke Ellington - Creole Love Call
TTITLE3=Louis Armstrong - I'm a Ding Dong Daddy (From Dumas)
TTITLE4=Cab Calloway - The Scat Song
TTITLE5=Cab Calloway - Minnie the Moocher
TTITLE6=Cab Calloway - Zaz Zuh Zaz
TTITLE7=Slim Gaillard - Bootta-La-Za
TTITLE8=Slim Gaillard - Ra-Da-Da-Da
TTITLE9=Slim Gaillard - Vout Orenee
TTITLE10=Anita O'Day - That's What You Think
TTITLE11=Anita O'Day - How High the Moon
TTITLE12=Three Bips and A Bop - Lop-Pow
TTITLE13=Three Bips and A Bop - Weird Lullaby
TTITLE14=Ella Fitzgerald - Oh, Lady Be Good
TTITLE15=Ella Fitzgerald - Robbins' Nest
TTITLE16=Dizzy Gillespie - Cool Breeze
TTITLE17=Dizzy Gillespie - Ool-Ya-Koo
TTITLE18=Anita O'Day - Malaguena
TTITLE19=Anita O'Day - What Is This Thing Called Love?
EXTD=YEAR: 2006
EXTT0=
EXTT1=
EXTT2=
EXTT3=
EXTT4=
EXTT5=
EXTT6=
EXTT7=
EXTT8=
EXTT9=
EXTT10=
EXTT11=
EXTT12=
EXTT13=
EXTT14=
EXTT15=
EXTT16=
EXTT17=
EXTT18=
EXTT19=
PLAYORDER=
